<svg width="48" height="48" viewBox="0 0 48 48" fill="none" xmlns="http://www.w3.org/2000/svg">
<circle cx="24" cy="24" r="24" fill="#FFB900"/>
<path d="M32.8889 20.1941C32.8889 15.2479 28.9463 13.2178 24 13.2178C19.0538 13.2178 14.978 15.2484 14.978 20.1941C14.978 22.0094 15.5271 24.5143 16.4668 26.9577C16.6337 27.3919 16.7174 27.8558 16.6977 28.3207C16.693 28.4304 16.6904 28.5406 16.6904 28.6514C16.6904 32.763 19.9331 34.9387 23.9335 34.9387C27.9338 34.9387 31.1765 32.763 31.1765 28.6514C31.1765 28.5708 31.1755 28.4907 31.1729 28.4106C31.1583 27.9541 31.2353 27.4996 31.3975 27.0727C32.3408 24.5933 32.8889 22.038 32.8889 20.1941Z" stroke="black" stroke-width="1.2" stroke-miterlimit="10"/>
<path d="M23.9333 32.5612C26.0442 32.5612 27.7553 30.8501 27.7553 28.7392C27.7553 26.6284 26.0442 24.9172 23.9333 24.9172C21.8225 24.9172 20.1113 26.6284 20.1113 28.7392C20.1113 30.8501 21.8225 32.5612 23.9333 32.5612Z" stroke="black" stroke-width="1.2" stroke-miterlimit="10"/>
<path d="M28.4283 21.8331H19.572C19.0262 21.8331 18.5835 21.3999 18.5835 20.8658V18.4671C18.5835 17.933 19.0262 17.4998 19.572 17.4998H28.4283C28.9741 17.4998 29.4168 17.933 29.4168 18.4671V20.8658C29.4168 21.3999 28.9746 21.8331 28.4283 21.8331Z" stroke="black" stroke-width="1.2" stroke-miterlimit="10"/>
</svg>
